<?xml version="1.0" standalone="no"?><!DOCTYPE svg PUBLIC "-//W3C//DTD SVG 1.1//EN" "http://www.w3.org/Graphics/SVG/1.1/DTD/svg11.dtd"><svg t="1775211983053" class="icon" viewBox="0 0 1024 1024" version="1.1" xmlns="http://www.w3.org/2000/svg" p-id="1698" xmlns:xlink="http://www.w3.org/1999/xlink" width="200" height="200"><path d="M938.24 503.429a32.023 32.023 0 1 0 43.543-46.903L533.806 40.57a32.023 32.023 0 0 0-43.612 0L42.286 456.457a32.023 32.023 0 0 0 43.543 46.903L512 107.703l426.24 395.726zM575.977 671.977V896c0 17.691 14.4 32.023 32.023 32.023h224.023A32.023 32.023 0 0 0 863.977 896V512A32.023 32.023 0 0 0 800 512v351.977H640.023V640.023A32.023 32.023 0 0 0 608 608H413.326a32.023 32.023 0 0 0-31.955 32.023v223.954H224V512a32.023 32.023 0 0 0-63.977 0v384c0 17.691 14.331 32.023 31.954 32.023h221.349A32.023 32.023 0 0 0 445.349 896V671.977h130.628z m256.046-511.954v96a32.023 32.023 0 0 0 63.977 0V128a32.023 32.023 0 0 0-32.023-32.023H704a32.023 32.023 0 0 0 0 64.046h128.023z" p-id="1699" fill="#707070"></path></svg>